<svg width="150" height="150" viewBox="0 0 75 33" fill="none" xmlns="http://www.w3.org/2000/svg">
<path d="M70.4355 8.28027C70.394 8.12393 70.3209 7.97773 70.2208 7.8507C70.1206 7.72366 69.9955 7.61848 69.8532 7.54161C69.7109 7.46475 69.5543 7.41784 69.3931 7.40378C69.232 7.38972 69.0697 7.40879 68.9162 7.45983C65.1323 8.61739 61.2877 9.56587 57.3996 10.301C50.7973 11.5436 44.093 12.1642 37.3748 12.1546C30.0825 12.1594 22.8083 11.4264 15.6636 9.96673C12.3666 9.29823 9.11523 8.4474 5.84867 7.45983C5.69415 7.40901 5.53083 7.39053 5.36887 7.40556C5.2069 7.42059 5.04977 7.4688 4.90724 7.54719C4.76472 7.62557 4.63986 7.73246 4.54044 7.8612C4.44101 7.98993 4.36915 8.13776 4.32933 8.29547L0.120783 23.8686C0.00145137 24.3076 -0.029862 24.7658 0.0286457 25.2169C0.0871534 25.6681 0.234326 26.1032 0.461689 26.4972C0.689052 26.8912 0.992112 27.2363 1.35342 27.5127C1.71472 27.7891 2.12714 27.9912 2.56691 28.1076C22.6525 33.3341 52.1275 33.3341 72.2131 28.1076C72.6529 27.9912 73.0653 27.7891 73.4266 27.5127C73.7879 27.2363 74.091 26.8912 74.3183 26.4972C74.5457 26.1032 74.6929 25.6681 74.7514 25.2169C74.8099 24.7658 74.7786 24.3076 74.6592 23.8686L70.4355 8.28027ZM37.1469 16.12C37.5136 16.12 37.8653 16.2657 38.1246 16.525C38.3839 16.7843 38.5295 17.1359 38.5295 17.5026C38.5295 17.8693 38.3839 18.221 38.1246 18.4803C37.8653 18.7395 37.5136 18.8852 37.1469 18.8852C36.7802 18.8852 36.4286 18.7395 36.1693 18.4803C35.91 18.221 35.7643 17.8693 35.7643 17.5026C35.7643 17.1359 35.91 16.7843 36.1693 16.525C36.4286 16.2657 36.7802 16.12 37.1469 16.12ZM33.1207 21.1794C32.8472 21.1794 32.5799 21.0983 32.3526 20.9464C32.1252 20.7945 31.948 20.5785 31.8433 20.3259C31.7387 20.0733 31.7113 19.7953 31.7647 19.5271C31.818 19.2589 31.9497 19.0125 32.143 18.8192C32.3364 18.6258 32.5828 18.4941 32.851 18.4408C33.1192 18.3874 33.3971 18.4148 33.6498 18.5195C33.9024 18.6241 34.1184 18.8013 34.2703 19.0287C34.4222 19.2561 34.5033 19.5234 34.5033 19.7968C34.5053 19.9789 34.4709 20.1596 34.4022 20.3283C34.3334 20.497 34.2317 20.6502 34.1029 20.779C33.9741 20.9078 33.8208 21.0095 33.6522 21.0783C33.4835 21.1471 33.3028 21.1814 33.1207 21.1794ZM34.1994 23.4128C34.3858 22.4985 34.9049 21.6859 35.656 21.1323C36.4072 20.5788 37.3371 20.3236 38.2656 20.4163C39.1941 20.5089 40.0552 20.9428 40.6821 21.6339C41.3091 22.325 41.6573 23.2242 41.6593 24.1573C41.7657 28.8672 33.6069 29.5357 34.1994 23.4128ZM41.6593 20.1311C41.3859 20.1311 41.1186 20.05 40.8912 19.8981C40.6638 19.7461 40.4866 19.5302 40.382 19.2776C40.2773 19.0249 40.25 18.7469 40.3033 18.4787C40.3567 18.2105 40.4883 17.9642 40.6817 17.7708C40.8751 17.5775 41.1214 17.4458 41.3896 17.3924C41.6578 17.3391 41.9358 17.3665 42.1884 17.4711C42.4411 17.5758 42.657 17.753 42.8089 17.9803C42.9608 18.2077 43.0419 18.475 43.0419 18.7485C43.0419 19.1152 42.8963 19.4668 42.637 19.7261C42.3777 19.9854 42.026 20.1311 41.6593 20.1311Z" fill="#FFC000"/>
<path d="M56.8527 7.3231C59.2229 6.8673 61.593 6.33553 63.948 5.71261C64.203 5.64075 64.4274 5.48758 64.5873 5.2764C64.7472 5.06522 64.8337 4.8076 64.8337 4.54272C64.8337 4.27784 64.7472 4.02022 64.5873 3.80904C64.4274 3.59786 64.203 3.44469 63.948 3.37283C46.5334 -1.12428 28.2619 -1.12428 10.8473 3.37283C10.5859 3.43978 10.3541 3.59183 10.1887 3.80503C10.0232 4.01822 9.93335 4.28043 9.93335 4.55032C9.93335 4.8202 10.0232 5.08241 10.1887 5.29561C10.3541 5.5088 10.5859 5.66086 10.8473 5.7278C12.6553 6.19879 14.4633 6.62421 16.2865 6.98885C29.6579 9.74047 43.4379 9.85401 56.8527 7.3231Z" fill="#FFC000"/>
</svg>
