<svg width="100" height="100" viewBox="0 0 67 67" fill="none" xmlns="http://www.w3.org/2000/svg">
<path d="M40.4409 1.19503C46.563 2.56554 52.1691 5.64872 56.6052 10.0848C61.0414 14.521 64.1246 20.1271 65.4951 26.2492C62.0893 29.1194 57.7303 30.6068 53.2804 30.4173C48.8306 30.2277 44.6139 28.375 41.4645 25.2256C38.3151 22.0762 36.4624 17.8595 36.2728 13.4097C36.0833 8.95979 37.5707 4.60083 40.4409 1.19503ZM25.8933 65.851C19.7712 64.4805 14.165 61.3973 9.72889 56.9612C5.29276 52.5251 2.20959 46.9189 0.839072 40.7968C4.24487 37.9267 8.60383 36.4392 13.0537 36.6288C17.5036 36.8183 21.7203 38.671 24.8697 41.8204C28.0191 44.9698 29.8718 49.1865 30.0613 53.6364C30.2509 58.0863 28.7634 62.4452 25.8933 65.851ZM56.6049 56.9608C53.1002 60.4612 48.8576 63.1341 44.1872 64.7841C39.5168 66.4342 34.5367 67.0196 29.611 66.4976C32.5339 62.4498 33.9201 57.4935 33.5212 52.5167C33.1222 47.5398 30.9642 42.8676 27.4337 39.3372C23.9033 35.8067 19.2311 33.6487 14.2543 33.2497C9.2774 32.8508 4.32111 34.237 0.273333 37.1599C-0.274608 32.2327 0.290027 27.2453 1.92563 22.5653C3.56123 17.8853 6.22612 13.6319 9.7239 10.1186C13.2217 6.6053 17.4632 3.92162 22.136 2.26532C26.8087 0.609029 31.7935 0.022332 36.7231 0.548466C34.4427 3.68175 33.0731 7.38464 32.7658 11.2478C32.4585 15.1109 33.2255 18.9837 34.982 22.4381C36.7385 25.8925 39.416 28.7939 42.7185 30.8215C46.0211 32.8491 49.82 33.9239 53.6954 33.9271C58.1334 33.9556 62.465 32.5684 66.0608 29.9669C66.6161 34.8878 66.0542 39.8706 64.417 44.5443C62.7798 49.2179 60.1095 53.4621 56.6049 56.9608Z" fill="#FFC000"/>
</svg>
