<svg width="150" height="150" viewBox="0 0 63 64" fill="none" xmlns="http://www.w3.org/2000/svg">
<path d="M16.6435 36.7683C14.8988 35.1618 12.5976 34.3012 10.2294 34.3694C7.69048 34.3694 5.2555 35.3804 3.46017 37.1799C1.66485 38.9793 0.65625 41.4199 0.65625 43.9648C0.65625 46.5096 1.66485 48.9502 3.46017 50.7497C5.2555 52.5492 7.69048 53.5601 10.2294 53.5601C10.2294 56.105 11.238 58.5456 13.0334 60.345C14.8287 62.1445 17.2637 63.1555 19.8026 63.1555C22.3416 63.1555 24.7766 62.1445 26.5719 60.345C28.3672 58.5456 29.3758 56.105 29.3758 53.5601C29.4439 51.1865 28.5853 48.88 26.9825 47.1312L46.8948 27.1729C48.6167 28.8318 50.9206 29.7452 53.3088 29.7157C55.8478 29.7157 58.2828 28.7048 60.0781 26.9053C61.8734 25.1058 62.882 22.6652 62.882 20.1204C62.882 17.5755 61.8734 15.1349 60.0781 13.3354C58.2828 11.536 55.8478 10.525 53.3088 10.525C53.3088 7.98018 52.3002 5.53957 50.5049 3.7401C48.7096 1.94062 46.2746 0.929688 43.7356 0.929688C41.1967 0.929688 38.7617 1.94062 36.9664 3.7401C35.171 5.53957 34.1624 7.98018 34.1624 10.525C34.1316 12.8492 34.9877 15.0975 36.5557 16.81L16.6435 36.7683Z" fill="#FFC000"/>
</svg>
